<?xml version="1.0" encoding="utf-8"?>
<!-- Generator: Adobe Illustrator 25.4.1, SVG Export Plug-In . SVG Version: 6.00 Build 0)  -->
<svg version="1.1" id="Слой_1" xmlns="http://www.w3.org/2000/svg" xmlns:xlink="http://www.w3.org/1999/xlink" x="0px" y="0px"
	 viewBox="0 0 2892.76 1554.65" style="enable-background:new 0 0 2892.76 1554.65;" xml:space="preserve">
<style type="text/css">
	.st0{fill:#EBF3FA;}
	.st1{fill:#82B378;}
	.st2{fill:#A8D29F;}
	.st3{fill:#2C3A64;}
	.st4{fill:#2B478B;}
	.st5{fill:#233862;}
	.st6{fill:#FFB27D;}
	.st7{fill:#FF9843;}
	.st8{fill:#ED985F;}
	.st9{fill:#FFFFFF;}
	.st10{fill:#ED7D2B;}
	.st11{fill:#FCECDB;}
	.st12{fill:#EFCBAB;}
	.st13{fill:#F99746;}
	.st14{opacity:0.5;}
	.st15{fill:#CDE0FB;}
	.st16{fill:#B1CFF2;}
	.st17{fill:#AFCDFB;}
	.st18{fill:#FFAD76;}
	.st19{fill:#739AF0;}
	.st20{fill:#172B4C;}
	.st21{fill:#5486D6;}
	.st22{fill:#23407A;}
	.st23{fill:#FFBF94;}
	.st24{fill:#2E3552;}
</style>
<g>
	<g>
		<path class="st0" d="M113.31,1551.44c0,0-255.55-388.68,24.13-809.48c248.15-373.36,639.68-76.48,861.53-456.39
			c302.55-518.09,1812.4-315.76,1621.19,481.34c-92.54,385.74,419.97,399.76,229.32,785.35L113.31,1551.44z"/>
		<g>
			<path class="st1" d="M2020.75,774.76c0,0-46.16-61.2,2.86-95.17c0,0,35.42-18.53,63.14-15.11c0,0-43.56,63.65-31.21,71.03
				c12.34,7.37,43.42-74.43,43.42-74.43s78.13-2.68,102.36,10.89c0,0-69.78,50.18-56,54.29c13.78,4.11,88.82-44.74,88.82-44.74
				s71.51,16.81,64.9,60.66c-6.61,43.85-32.36,55.91-43.23,54.06c-10.87-1.86-73.38-30.3-75.33-21.41
				c-1.95,8.88,34.76,40.6,61.66,43.66c0,0-54.47,53.02-87.32,34.68c-32.85-18.33-34.14-44.22-54.65-55.18
				c-20.51-10.96-38.53-12.06-30.43-1.68c8.1,10.38,45.71,22.32,56.45,44.43c10.74,22.11,20.67,37.19-14.04,29.73
				c-34.71-7.46-90.06-36.65-90.73-66.17C2020.75,774.76,2020.75,774.76,2020.75,774.76z"/>
			<g>
				<path class="st1" d="M2263.45,741.14c0,0-195.84-19.82-242.7,33.61c0,0-11.38,28.12-42.52,52.42l-5.38,12.25
					c0,0,36.26-33.74,48.57-35.15C2021.42,804.27,2006.73,733.53,2263.45,741.14z"/>
				<path class="st1" d="M1978.23,827.18c0,0-44.08,28.53-50.49,84.03l7.6,1.16c0,0,17.05-56.73,42.78-77.73
					C2003.87,813.65,1978.23,827.18,1978.23,827.18z"/>
			</g>
		</g>
		<g>
			<path class="st2" d="M1794.27,628.46c0,0-102.35-57.32-54.59-135.1c0,0,38.21-47.76,79.15-60.05c0,0-21.84,116,0,118.73
				c21.83,2.73,15.01-131.01,15.01-131.01s107.81-51.86,150.12-47.76c0,0-66.87,113.27-45.03,110.54
				c21.83-2.73,96.89-117.36,96.89-117.36s110.54-20.47,128.28,45.03c17.74,65.5-10.92,98.26-27.29,102.35
				c-16.38,4.09-121.46,2.73-118.73,16.38c2.73,13.65,73.69,35.48,113.27,23.2c0,0-43.67,107.81-100.99,102.35
				c-57.32-5.46-75.06-40.94-110.54-43.67c-35.48-2.73-61.41,6.82-43.67,16.38c17.74,9.55,77.79,3.13,106.44,27.49
				c28.66,24.36,51.86,39.38-1.36,50.29c-53.22,10.92-148.75,4.09-167.86-36.85C1794.27,628.46,1794.27,628.46,1794.27,628.46z"/>
			<g>
				<path class="st1" d="M2113.61,431.95c0,0-286.58,92.8-319.34,196.51c0,0,1.37,46.4-27.29,99.62v20.47c0,0,30.02-69.6,46.4-79.15
					C1813.38,669.4,1749.24,579.33,2113.61,431.95z"/>
				<path class="st1" d="M1766.98,728.08c0,0-44.2,67.11-19,148.81l11.37-3.05c0,0-11.04-89.98,12.09-135.24
					C1794.56,693.34,1766.98,728.08,1766.98,728.08z"/>
			</g>
		</g>
		<g>
			<path class="st2" d="M1254.54,657.83c0,0,119.11-50.41,76.19-141.44c0,0-36.09-56.97-79.46-75.39c0,0,9.87,129.76-14.39,130.11
				c-24.26,0.34-0.57-145.39-0.57-145.39s-111.86-69.89-158.72-70.54c0,0,59.55,132.23,35.96,126.59
				c-23.6-5.64-91.96-140.36-91.96-140.36s-118.65-35.83-146.03,33.8c-27.38,69.63,0.06,109,17.51,115.47s132.77,17.71,128.12,32.33
				c-4.65,14.62-85.06,29.95-126.94,11.7c0,0,34.79,123.44,98.26,124.4c63.47,0.96,87.21-35.77,126.43-34.46
				c39.21,1.31,66.47,14.92,45.87,23.24c-20.6,8.32-85.62-6-119.98,17.23c-34.36,23.23-61.6,36.87-4.6,55.28
				c57,18.41,162.51,22.51,188.41-20.04C1254.54,657.83,1254.54,657.83,1254.54,657.83z"/>
			<g>
				<path class="st1" d="M928.4,403.78c0,0,302.81,136.43,326.13,254.05c0,0-7.12,50.68,17.84,112.48l-2.48,22.43
					c0,0-24.47-79.91-41.25-92.36C1228.64,700.38,1309.84,609.45,928.4,403.78z"/>
				<path class="st1" d="M1272.37,770.31c0,0,40.3,78.9,2.79,165.38l-12.09-4.72c0,0,23-97.27,3.15-149.67
					C1246.36,728.9,1272.37,770.31,1272.37,770.31z"/>
			</g>
		</g>
		<path class="st1" d="M1010.23,950.37c-21.05-30.36-23.4-58.64-23.4-58.64s58.24-41.82,23.91-85.79c0,0-26.48-26.4-52.18-31.05
			c0,0,21.2,68.96,8.13,72.11c-13.08,3.15-18.08-78.54-18.08-78.54s-69.03-24.12-94.44-18.74c0,0,48.37,64.22,34.92,64.06
			c-13.45-0.16-66.88-64.65-66.88-64.65s-68.54-4.87-74.83,36.13c-6.29,41,13.36,58.93,23.58,60.3c10.23,1.37,73.96-6.65,73.23,1.82
			c-0.72,8.47-42.33,26.59-67.21,21.84c0,0,33.9,62.49,68.34,55.25c34.44-7.24,42.79-30,64.15-34.09
			c21.36-4.09,37.77-0.06,27.64,6.96c-10.12,7.02-47.03,7.22-62.77,23.98c-15.74,16.76-28.8,27.46,4.27,30.45
			c33.07,2.99,90.63-7.69,99.43-33.87c0.38-1.14,0.75-2.23,1.1-3.27c-0.47,2.13-1.1,3.27-1.1,3.27
			c6.36,2.81,17.17,18.39,24.81,30.42c1.13,2.07,2.87,4.91,5.4,8.74c0,0,0,0,0,0c1.05,1.74,1.89,3.17,2.48,4.17
			c14.61,27.23,14.12,77.14,14.12,77.14l7.12,1.08C1041.66,988.1,1010.23,950.37,1010.23,950.37z"/>
		<g>
			<path class="st3" d="M620.96,251.39c-0.57-3.15-7.97-36.87-60.13-31.11c0,0,25.96-0.66,32,9.92c0,0-19.39-11.34-32.9-4.83
				c-13.51,6.51-18.22,32.52-17.12,40.68c1.1,8.17,12.78,33.32,22.09,34.25c3.53,0.35,7.41-0.44,10.88-1.57
				c-1.85,4.08-3.59,8.54-5.16,13.46c-14.54,45.52,12.85,83.97,29.72,76.83c10.82-4.58,16.78,14.15,16.78,14.15l96.41-104.3
				C713.54,298.87,661.36,221.66,620.96,251.39z"/>
			<path class="st4" d="M746.56,1507.61l-23.45,8.73c0,0-101.85-141.26-114.39-265.54c-2.24-22.19-1.49-43.69,3.35-63.54
				c0,0-1-5.69-2.74-15.74c-0.8-4.69-1.8-10.34-2.93-16.81c-3.31-18.97-7.87-44.93-13.08-74.49
				c-11.98-68.02-27.51-154.97-39.57-218.89l6.32-2.03l68.36-22.05l14.13-44.87l50.9-13.4c0,0,11.37,22.25,21.54,127.33
				c1.88,13.78,3.58,28.98,4.86,45.47c3.96,50.31,4.25,112.72-4.84,184.07c-2.34,18.26-5.28,37.12-8.94,56.49
				c-2.68,14.2-3.08,33.56-1.95,55.79C709.27,1349.71,746.56,1507.61,746.56,1507.61z"/>
			<path class="st5" d="M719.88,951.76l-110.54,219.76c-0.8-4.69-1.8-10.34-2.93-16.81c-3.31-18.97-7.87-44.93-13.08-74.49
				c-11.98-68.02-27.51-154.97-39.57-218.89l6.32-2.03l68.36-22.05l14.13-44.87l50.9-13.4c0,0,11.37,22.25,21.54,127.33
				C716.89,920.08,718.59,935.28,719.88,951.76z"/>
			<path class="st4" d="M671.25,807.17l-2.56-21.94c-42.87,11.39-157.42-31.82-157.42-31.82s-41.53,36.51-36.08,124.02
				c2.66,42.71,7.52,224.21,12.6,277.92c1.84,19.47,3.44,33.32,4.1,38.85c0.01,0.03,0.01,0.04,0.01,0.05
				c0.2,1.69-0.39,3.28-1.25,4.76c-7.48,12.69-13.67,25.9-18.74,39.41c-49.84,132.81,7.68,296.36,7.68,296.36l14.92-6.01
				c0,0,32.73-182.01,59.32-262.42c4.51-13.64,8.84-24.36,12.81-30.76c11.56-18.66,22.29-49.15,32.03-85.42
				c18.41-68.57,33.22-157.76,43.09-226.61C643.13,923.62,671.25,807.17,671.25,807.17z"/>
			<path class="st6" d="M740.37,631.28c0.84,0.86,1.65,1.72,2.64,2.52c36.64,34.14,85.99,64.33,112.39,70.98
				c17.37,4.44,55.66-1.51,87.45-8.05c21.19-4.18,39.63-8.8,47.24-10.61c2.43-0.57,3.78-0.99,3.78-0.99l-3.32-21.44
				c0,0-19.06-1.51-42.74-4.18c-32.98-3.88-74.79-9.83-85.5-16.16c-24.84-14.76-68.43-76.67-103.4-115.59
				c-1.83-2.12-3.65-4.16-5.45-6.16c-1.32-1.46-2.63-2.9-3.94-4.3c-0.27-0.28-0.6-0.74-1.03-0.98c-1.61-1.54-2.97-2.98-4.29-4.24
				c-0.05-0.16-0.28-0.27-0.5-0.4c-6.22-6.24-17.11-13.82-17.11-13.82c-6.11-3.48-11.14-4.16-14.68-1.19c0,0-4.57,4.47-9.05,12.9
				c-0.95,1.76-1.89,3.7-2.78,5.82c-0.74,1.16-1.11,2.39-1.47,3.62c-2.97,7.79-5.13,17.57-4.74,28.98
				c0.27,8.64,1.92,18.17,5.76,28.68C705.72,593.92,721.16,613.09,740.37,631.28z"/>
			<path class="st6" d="M708.47,540.84c-12.42,8.11-27.9,14.65-47.2,18.54c-72.36,14.58-98.2-46.95-107.37-88.96
				c9.96-5.33,19.22-6.31,24.57-6.8c5.21-0.47,10.69-0.72,15.22-0.82c8.25-5.96,20.99-30.92,24.76-70.14l3.36,1l56.22,17.1
				c0,0-3.1,17.94-4.86,34.93c-1.36,13.29-1.87,26.02,0.56,29.21c4.39,1.08,7.03,1.78,7.03,1.78s0,0.02,0.03,0.05
				C681.51,478.02,697.19,505.51,708.47,540.84z"/>
			<path class="st7" d="M733.66,586.05c-0.33,1.54-0.74,3.05-1.19,4.6c-12.7,42.47-22.98,212.24-22.98,212.24
				c6.73,21.22-116.64,25.57-184.67,15.76c-24.74-3.56-42.16-8.99-43.36-16.16c-12.17-27.44,17.62-78.69,34.82-104.74
				c2.16-3.27,4.02-6.71,5.55-10.27c3.89-8.96,5.76-18.72,5.37-28.56c-0.52-13.46-1.67-26.53-3.07-38.78
				c-2.63-23.09-6.16-43.25-8-57.52c0,0,0,0,0-0.01c3.58-3.56,7.06-6.86,10.31-10c4.95-4.84,9.29-9.32,12.33-13.67
				c3.35-4.74,5.21-9.37,4.8-14.22c-0.32-3.67-0.98-7.39-1.9-11.06c-0.43-1.74-0.91-3.46-1.43-5.19
				c-5.52-18.1-15.69-33.76-15.69-33.76c18.42-10.77,53.91-11.1,53.91-11.1s0.24,1.94,0.69,5.11c1.73,12.73,6.58,45.36,11.55,50.94
				c6.21,6.96,104.33,27.13,107.74,15.97c3.36-10.97-16.9-57.14-17.66-58.89c-0.02-0.03-0.02-0.06-0.02-0.06
				c31.42,7.47,45.07,15.91,45.69,16.41c0,0-0.02,0-0.03-0.01C709.37,508.03,742.61,545.35,733.66,586.05z"/>
			<path class="st8" d="M678.02,410.79c0,0-3.11,17.92-4.85,34.92c-32.01-4.12-46.05-35.1-51.37-52.03L678.02,410.79z"/>
			<path class="st6" d="M687.13,427.97c0,0-76.07-6.35-71.39-53.67c4.68-47.31-1.98-80,46.79-77.94
				c48.77,2.05,56.4,21.04,58.68,37.21C723.49,349.74,707.04,428.4,687.13,427.97z"/>
			<path class="st3" d="M721.59,307.04c-10.32-15.41-19.5-13.17-24.9-9.39c-39.23-26.98-69.35,4.09-69.35,4.09
				c-8.48,33.44-34.9,50.43-34.9,50.43s12.99,9.94,45.72,4.93c10-1.53,19.4-7.59,27.64-15.25c-15.08,20.36-34.22,34.19-34.22,34.19
				c39.88-13.8,60.5-65.29,62.59-70.74c4.22,4.63,12.45,14.59,14.35,23.73c2.58,12.43,1.8,37.4,9.11,37.28
				C717.62,366.3,737.06,330.14,721.59,307.04z"/>
			<path class="st6" d="M1061,660.86c-7.61,7.25-15.3,25.38-38.73,25.03c-16.72-0.14-33.64,1.74-41.84,2.75
				c-3.19,0.56-5.04,0.78-5.04,0.78l-0.84-26.54c0,0,0.34,0.03,1.1-0.09c5.66-0.85,34.41-5.27,45.79-12.82
				c12.77-8.56,42.64-0.63,42.64-0.63S1068.66,653.75,1061,660.86z"/>
			<path class="st5" d="M566.37,1546.98h-118.1c0,0-2.83-18,3.34-31.66c5.91-13.1,15.17-19.06,12.95-34.91
				c7.5,7.73,19.74,16.38,36.81,14.08c2.09,3.39,13.5,21.54,20.49,26.56C529.57,1526.6,563.99,1524.62,566.37,1546.98z"/>
			<path class="st5" d="M819.95,1546.98h-118.1c0,0-4.42-18.84,3.34-31.66c6.86-11.34,4.23-17.8-0.85-27.18
				c5.35,2.19,12.27,4.18,19.89,3.75c5.88-0.34,12.11-3.01,17.56-6.18c5.08,5.79,26.85,30.46,33.65,35.35
				C783.16,1526.6,817.57,1524.62,819.95,1546.98z"/>
			<path class="st9" d="M668.99,400.6c0,0,1.06,6.26,16.48,6.28c0,0,12.94,0.01,12.97-6.79
				C698.44,400.09,686.24,394.47,668.99,400.6z"/>
			<path class="st10" d="M540.94,701.33c-4.67,29.59-26.07,88.97-16.12,117.33c-24.74-3.56-42.16-8.99-43.36-16.16
				c-12.17-27.44,17.62-78.69,34.82-104.74c2.16-3.27,4.02-6.71,5.55-10.27c3.89-8.96,5.76-18.72,5.37-28.56
				c-0.52-13.46-1.67-26.53-3.07-38.78C524.13,620.15,545.91,669.88,540.94,701.33z"/>
			<path class="st7" d="M708.11,501.68c0.82,26.3,19.84,98.5,24.36,88.97c5.16-10.87,25.13-52.19,34.51-53.71
				c-0.49-1.91-38.88-44.35-40.56-43.86C726.41,493.09,715.98,496.27,708.11,501.68z"/>
			<g>
				<path class="st6" d="M527.02,874.76l-19.59,13.04c0,0-4.96-6.2-12.81-16.1c-2.35-2.98-3.6-4.78-3.6-4.78
					c-6.21-8-13.43-17.82-21.33-28.47l-0.13-0.12c-13.23-18.59-27.77-39.72-38.89-58.83c-7.73-13.55-13.75-26.09-16.69-35.95
					c-0.32-0.99-0.5-1.85-0.7-2.97c-5.75-25.01,4.8-74.66,21.59-123.11c2.31-6.7,4.74-13.29,7.07-19.73
					c8.93-23.76,18.97-46.09,29.05-64.13c5.91-10.85,11.8-20.31,17.48-27.37c1.97-2.53,3.82-4.91,5.82-6.94
					c1.08-1.23,2.16-2.41,3.23-3.54c11.77,0.99,36.46,5.66,54.79,26.82c-0.31,1.11-0.64,2.22-0.97,3.36
					c-7.41,23.9-18.85,53.23-30.71,81.98c-6.45,15.79-13.05,31.46-18.83,46.2c-3.67,8.81-6.98,17.21-9.98,24.97
					c-5.64,14.85-9.83,27.21-11.49,35.88c-1.13,5.62,0.48,16.19,3.51,29.19c5.2,22.66,15.1,53.17,24.31,79.07
					c3.76,10.81,7.47,20.87,10.57,29.21C523.66,865.94,527.02,874.76,527.02,874.76z"/>
				<path class="st7" d="M535.59,597.39c-19.57-29.54-75.66-42.25-75.66-42.25c31.65-100.43,114.75-91.12,114.75-91.12
					S544.45,568.51,535.59,597.39z"/>
				<path class="st6" d="M507.43,887.81c0,0,5.15,7.6,5.72,13.06c0.58,5.47,5.47,23.59,11.79,29.34
					c6.33,5.75,20.71,17.26,22.72,15.53c2.01-1.73,7.84-15.29,2.44-24.88c-2.44-4.33-5.75-16.4-10.11-19.32
					c-5.3-3.55-12.98-26.78-12.98-26.78L507.43,887.81z"/>
				<path class="st6" d="M527.1,877.71c0,0,15.58,7.91,17.69,14.24c2.11,6.33,10.82,19.09,9.92,20.57
					c-0.96,1.58-14.5-7.05-19.1-14.91S527.1,877.71,527.1,877.71z"/>
			</g>
		</g>
		<g>
			<path class="st10" d="M897.89,804.12l570.6-341.6c31.47-18.84,70.75-18.84,102.21,0l570.6,341.6l0,556.76l-1243.4-62.34V804.12z"
				/>
			<rect x="1004.92" y="557.43" class="st11" width="1029.35" height="889.56"/>
			<g>
				
					<ellipse transform="matrix(0.9239 -0.3827 0.3827 0.9239 -148.4805 446.0254)" class="st12" cx="1046.92" cy="596.24" rx="10.58" ry="10.58"/>
				<path class="st12" d="M1981.05,596.24c0-5.84,4.74-10.58,10.58-10.58c5.84,0,10.58,4.74,10.58,10.58
					c0,5.84-4.74,10.58-10.58,10.58C1985.78,606.83,1981.05,602.09,1981.05,596.24z"/>
				<g>
					<rect x="1046.92" y="595.09" class="st12" width="944.71" height="2.3"/>
				</g>
				<g>
					<rect x="1045.77" y="592.04" class="st12" width="2.3" height="944.71"/>
				</g>
				<g>
					<rect x="1990.85" y="592.04" class="st12" width="2.3" height="944.71"/>
				</g>
			</g>
			<g>
				<polygon class="st7" points="2141.29,802.58 2141.29,1546.97 897.89,1546.97 897.89,802.58 1519.59,1174.78 				"/>
				<path class="st10" d="M897.89,1546.98l569.51-408.3c31.2-22.37,73.18-22.37,104.38,0l569.51,408.3H897.89z"/>
			</g>
			<path class="st12" d="M1709.39,680.67h-375.3c-5.45,0-9.91-4.46-9.91-9.91l0,0c0-5.45,4.46-9.91,9.91-9.91h375.3
				c5.45,0,9.91,4.46,9.91,9.91l0,0C1719.3,676.21,1714.84,680.67,1709.39,680.67z"/>
			<path class="st12" d="M1806.06,720.43h-568.65c-5.45,0-9.91-4.46-9.91-9.91l0,0c0-5.45,4.46-9.91,9.91-9.91h568.65
				c5.45,0,9.91,4.46,9.91,9.91l0,0C1815.97,715.97,1811.51,720.43,1806.06,720.43z"/>
			<g>
				<path class="st12" d="M1732.32,843.73h-411.43c-3.94,0-7.17-3.23-7.17-7.17l0,0c0-3.94,3.23-7.17,7.17-7.17h411.43
					c3.94,0,7.17,3.23,7.17,7.17l0,0C1739.48,840.51,1736.26,843.73,1732.32,843.73z"/>
				<g>
					<path class="st12" d="M1362.2,881.17h-116.01c-3.94,0-7.17-3.23-7.17-7.17l0,0c0-3.94,3.23-7.17,7.17-7.17h116.01
						c3.94,0,7.17,3.23,7.17,7.17l0,0C1369.37,877.95,1366.14,881.17,1362.2,881.17z"/>
					<path class="st12" d="M1537.15,881.17H1397c-3.94,0-7.17-3.23-7.17-7.17l0,0c0-3.94,3.23-7.17,7.17-7.17h140.15
						c3.94,0,7.17,3.23,7.17,7.17l0,0C1544.32,877.95,1541.1,881.17,1537.15,881.17z"/>
					<path class="st12" d="M1807.01,881.17h-242.29c-3.94,0-7.17-3.23-7.17-7.17l0,0c0-3.94,3.23-7.17,7.17-7.17h242.29
						c3.94,0,7.17,3.23,7.17,7.17l0,0C1814.18,877.95,1810.95,881.17,1807.01,881.17z"/>
				</g>
				<g>
					<path class="st12" d="M1538.08,924.71h-225.36c-3.94,0-7.17-3.23-7.17-7.17l0,0c0-3.94,3.23-7.17,7.17-7.17h225.36
						c3.94,0,7.17,3.23,7.17,7.17l0,0C1545.25,921.48,1542.02,924.71,1538.08,924.71z"/>
					<path class="st12" d="M1740.48,924.71h-177.5c-3.94,0-7.17-3.23-7.17-7.17l0,0c0-3.94,3.23-7.17,7.17-7.17h177.5
						c3.94,0,7.17,3.23,7.17,7.17l0,0C1747.65,921.48,1744.42,924.71,1740.48,924.71z"/>
				</g>
			</g>
			<path class="st13" d="M1601.38,1013.22c-13.55,11.25-28.06,20.63-43.34,29.19c1.29-4.05,2.37-8.26,2.17-12
				c-0.27-5.16-4.39-7.42-8.51-9.56c-1.02-0.53-1.97-1.09-2.92-1.65c1.6-1.57,2.42-3.74,1.36-6.11c-1.74-3.91-6.62-3.28-8.27,0.34
				c-0.31,0.67-0.48,1.32-0.56,1.95c-0.66-0.35-1.17-0.73-1.61-1.26c2.51-4.69,4.88-9.47,7.06-14.35c0.49-1.1-0.13-2.39-1.01-3.06
				c-3.62-2.73-8.56-1.85-11.47,1.58c-3.45,4.07-2.58,10.26-0.93,14.88c0.12,0.32,0.24,0.65,0.38,0.97
				c-3.2,5.78-6.68,11.39-10.41,16.85c-0.35-0.35-0.7-0.7-1.05-1.04c-0.97-0.95-2.01-2.16-2.91-3.5c1.71-4.45,2.8-9.13,3.21-13.99
				c0.18-2.17-1.99-3.24-3.81-2.57c-5.02,1.86-7.72,6.96-7.07,12.21c0.22,1.8,0.81,3.52,1.63,5.12c-1.12,2.43-2.45,4.79-4.02,7.06
				c-1.02,1.47-0.29,2.97,0.91,3.67c-1.65,5.48-3.86,11.08-7.64,15.03c-3.09,3.22-8.85,5.67-12.61,1.84
				c-2.38-2.42-2.68-6.47-3.01-9.67c-0.8-7.89-1.4-16.08-1.11-24.02c0.14-3.76,0.54-7.58,1.82-11.13c0.8-2.21,1.92-5.55,2.99-1.75
				c0.53,1.87-0.2,4.76-0.39,6.66c-0.34,3.39,4.92,3.78,5.26,0.41c0.4-3.98,2.18-12.32-2.32-14.81c-3.73-2.07-7.16,0.9-8.89,4
				c-6.22,11.16-3.74,26.48-2.81,38.61c0.75,9.67,4.36,21.54,16.71,18.46c11.62-2.89,15.89-17.54,18.56-27.62
				c0.17-0.63,0.11-1.2-0.08-1.69c0.04-0.08,0.09-0.17,0.14-0.25c0.48,0.49,0.96,0.96,1.45,1.45c0.69,0.61,1.34,1.25,1.97,1.91
				c-1.22,1.69-2.46,3.37-3.74,5.03c-0.72,0.94-0.51,2.35,0.21,3.22c3.91,4.71,10.94,1.22,10.8-4.57c-0.03-1.34-0.36-2.53-0.88-3.62
				c3.67-5.28,7.1-10.72,10.28-16.3c1.65,1.62,3.76,2.66,6.34,2.54c0.18-0.01,0.35-0.03,0.53-0.05c1.35,1.43,3.05,2.62,4.6,3.5
				c1.5,0.84,3.23,1.37,4.58,2.47c2.51,2.05,1.76,4.39,1.21,7.3c-0.73,3.83-1.94,7.65-3.06,11.39c-5.31,3.05-10.55,6.92-12.34,13.04
				c-1.63,5.58-0.18,11.45,4.6,14.91c1.44,1.04,3.35,0.2,3.96-1.31c3-7.37,5.71-14.86,8.03-22.47c0.07-0.24,0.15-0.49,0.23-0.73
				c4.69-2.67,9.6-5.02,14.24-7.76c12.31-7.29,23.99-15.6,35-24.74C1607.48,1015.02,1604,1011.05,1601.38,1013.22z M1537.25,1006.19
				c-0.05-2.11,1.07-5.98,3.5-5.93c-1.1,2.38-2.24,4.74-3.42,7.07C1537.3,1006.95,1537.26,1006.56,1537.25,1006.19z
				 M1543.96,1067.17c-2.22-4.16,0.96-9.29,4.59-12.68C1547.13,1058.76,1545.59,1062.98,1543.96,1067.17z"/>
		</g>
		<g class="st14">
			<polygon class="st15" points="1497.37,192.12 1550.97,310.38 1353.43,399.91 1299.83,281.65 1425.4,296.02 			"/>
			<path class="st16" d="M1299.83,281.65l197.54-89.54l-59.06,99.54c-4.66,7.85-13.69,12-22.68,10.41L1299.83,281.65z"/>
		</g>
		<g class="st14">
			<polygon class="st15" points="336.03,964.33 364.22,1039.94 237.92,1087.04 209.72,1011.42 286.97,1025.68 			"/>
			<path class="st16" d="M209.72,1011.42l126.31-47.1l-40.86,59.21c-3.22,4.67-9,6.85-14.51,5.49L209.72,1011.42z"/>
		</g>
		<g class="st14">
			<polygon class="st15" points="2499.01,514.27 2459.39,662.75 2211.38,596.56 2251,448.08 2355.19,555.42 			"/>
			<path class="st16" d="M2251,448.08l248.01,66.18l-128.73,46.84c-10.15,3.69-21.53,0.72-28.57-7.48L2251,448.08z"/>
		</g>
		<g>
			<g>
				<path class="st17" d="M281.61,1298.66C281.61,1298.66,281.6,1298.66,281.61,1298.66c-6-0.02-11.81-0.1-17.29-0.25
					c-0.64-0.02-1.14-0.55-1.12-1.18c0.02-0.64,0.53-1.13,1.18-1.12c5.46,0.15,11.26,0.23,17.23,0.25c0.64,0,1.15,0.52,1.15,1.15
					C282.76,1298.15,282.24,1298.66,281.61,1298.66z M298.89,1298.53c-0.63,0-1.14-0.5-1.15-1.13c-0.01-0.63,0.5-1.16,1.13-1.17
					c5.53-0.09,11.34-0.24,17.26-0.43c0.66-0.05,1.17,0.48,1.19,1.11c0.02,0.64-0.48,1.17-1.11,1.19c-5.94,0.2-11.76,0.34-17.3,0.44
					C298.9,1298.53,298.9,1298.53,298.89,1298.53z M247.1,1297.67c-0.02,0-0.05,0-0.07,0c-6.09-0.37-11.89-0.84-17.25-1.41
					c-0.63-0.07-1.09-0.63-1.02-1.27c0.07-0.63,0.64-1.09,1.27-1.02c5.33,0.57,11.1,1.04,17.15,1.41c0.63,0.04,1.12,0.58,1.08,1.22
					C248.21,1297.2,247.71,1297.67,247.1,1297.67z M333.44,1297.41c-0.61,0-1.12-0.48-1.15-1.1c-0.03-0.63,0.46-1.17,1.1-1.2
					c5.54-0.26,11.34-0.56,17.25-0.9c0.63-0.02,1.18,0.45,1.22,1.08c0.04,0.63-0.45,1.18-1.08,1.21c-5.91,0.34-11.73,0.64-17.27,0.9
					C333.48,1297.41,333.46,1297.41,333.44,1297.41z M367.95,1295.42c-0.6,0-1.11-0.46-1.15-1.07c-0.04-0.63,0.44-1.18,1.07-1.23
					c5.67-0.38,11.41-0.8,17.23-1.24c0.63-0.05,1.19,0.43,1.23,1.06c0.05,0.63-0.43,1.19-1.06,1.23
					c-5.82,0.44-11.57,0.86-17.25,1.24C368.01,1295.42,367.98,1295.42,367.95,1295.42z M212.81,1293.87c-0.07,0-0.14,0-0.2-0.02
					c-6.35-1.14-12.04-2.5-16.92-4.05c-0.61-0.19-0.94-0.84-0.75-1.45c0.19-0.61,0.84-0.94,1.45-0.75
					c4.78,1.52,10.38,2.86,16.63,3.98c0.63,0.11,1.04,0.71,0.93,1.34C213.84,1293.48,213.36,1293.87,212.81,1293.87z M402.42,1292.8
					c-0.59,0-1.1-0.45-1.15-1.05c-0.05-0.63,0.42-1.19,1.05-1.24c5.68-0.48,11.42-0.98,17.21-1.51c0.64-0.06,1.19,0.41,1.25,1.04
					c0.06,0.63-0.41,1.19-1.04,1.25c-5.8,0.53-11.54,1.03-17.22,1.51C402.48,1292.8,402.45,1292.8,402.42,1292.8z M436.84,1289.68
					c-0.59,0-1.09-0.45-1.14-1.04c-0.06-0.63,0.4-1.2,1.03-1.26c5.69-0.55,11.42-1.13,17.19-1.72c0.63-0.05,1.2,0.39,1.26,1.03
					c0.06,0.63-0.39,1.2-1.03,1.26c-5.77,0.59-11.51,1.17-17.2,1.72C436.91,1289.68,436.87,1289.68,436.84,1289.68z M471.21,1286.15
					c-0.58,0-1.08-0.44-1.14-1.03c-0.07-0.63,0.39-1.2,1.02-1.27c5.69-0.61,11.42-1.25,17.17-1.9c0.63-0.07,1.2,0.38,1.27,1.01
					c0.07,0.63-0.38,1.2-1.01,1.27c-5.76,0.65-11.48,1.28-17.18,1.9C471.3,1286.15,471.25,1286.15,471.21,1286.15z M180.49,1282.55
					c-0.23,0-0.47-0.07-0.68-0.22c-3.33-2.43-5.74-5.18-7.15-8.17c-1.03-2.18-1.89-4.37-2.56-6.51c-0.19-0.61,0.15-1.25,0.76-1.44
					c0.6-0.19,1.25,0.15,1.44,0.76c0.63,2.03,1.45,4.12,2.44,6.21c1.25,2.64,3.41,5.09,6.43,7.29c0.51,0.37,0.63,1.09,0.25,1.61
					C181.19,1282.38,180.84,1282.55,180.49,1282.55z M505.55,1282.28c-0.58,0-1.07-0.43-1.14-1.02c-0.07-0.63,0.38-1.2,1.01-1.28
					c5.7-0.67,11.41-1.35,17.15-2.04c0.63-0.07,1.2,0.37,1.28,1c0.08,0.63-0.37,1.21-1,1.28c-5.74,0.7-11.46,1.38-17.16,2.05
					C505.64,1282.28,505.6,1282.28,505.55,1282.28z M539.86,1278.12c-0.57,0-1.07-0.43-1.14-1.01c-0.08-0.63,0.37-1.21,1-1.28
					c5.68-0.71,11.38-1.43,17.08-2.17c0.63-0.07,1.21,0.37,1.29,1s-0.36,1.21-0.99,1.29c-5.71,0.73-11.4,1.46-17.09,2.17
					C539.95,1278.12,539.91,1278.12,539.86,1278.12z M574.05,1273.72c-0.57,0-1.06-0.42-1.14-1c-0.08-0.63,0.36-1.21,0.99-1.29
					c5.71-0.75,11.42-1.52,17.13-2.29c0.64-0.08,1.21,0.36,1.29,0.99c0.09,0.63-0.36,1.21-0.99,1.29
					c-5.71,0.77-11.43,1.54-17.14,2.29C574.15,1273.72,574.1,1273.72,574.05,1273.72z M608.34,1269.08c-0.57,0-1.06-0.42-1.14-0.99
					c-0.09-0.63,0.35-1.21,0.98-1.3c5.71-0.79,11.41-1.59,17.11-2.39c0.62-0.09,1.21,0.35,1.3,0.98c0.09,0.63-0.35,1.21-0.98,1.3
					c-5.7,0.8-11.41,1.6-17.11,2.39C608.45,1269.08,608.39,1269.08,608.34,1269.08z M642.56,1264.25c-0.56,0-1.05-0.41-1.14-0.99
					c-0.09-0.63,0.35-1.21,0.98-1.3c5.71-0.82,11.41-1.65,17.1-2.48c0.63-0.1,1.21,0.34,1.31,0.97c0.09,0.63-0.34,1.21-0.97,1.3
					c-5.69,0.83-11.39,1.66-17.1,2.48C642.67,1264.25,642.61,1264.25,642.56,1264.25z M676.75,1259.24c-0.56,0-1.05-0.41-1.14-0.98
					c-0.09-0.63,0.34-1.21,0.97-1.31c5.72-0.85,11.41-1.71,17.08-2.57c0.63-0.1,1.21,0.34,1.31,0.97c0.1,0.63-0.34,1.21-0.96,1.31
					c-5.67,0.86-11.37,1.72-17.09,2.57C676.86,1259.24,676.8,1259.24,676.75,1259.24z M710.91,1254.07c-0.56,0-1.05-0.41-1.14-0.98
					c-0.1-0.63,0.33-1.22,0.96-1.31c5.72-0.88,11.42-1.76,17.07-2.64c0.63-0.09,1.22,0.33,1.31,0.96c0.1,0.63-0.33,1.22-0.96,1.31
					c-5.66,0.88-11.35,1.76-17.08,2.64C711.03,1254.06,710.97,1254.07,710.91,1254.07z M170.07,1251.45c-0.08,0-0.15-0.01-0.23-0.02
					c-0.62-0.13-1.03-0.73-0.9-1.35c1.11-5.49,3.7-10.78,7.71-15.71c0.4-0.5,1.12-0.57,1.62-0.17c0.49,0.4,0.57,1.12,0.17,1.62
					c-3.77,4.65-6.21,9.6-7.24,14.72C171.08,1251.07,170.6,1251.45,170.07,1251.45z M745.06,1248.74c-0.56,0-1.05-0.4-1.14-0.97
					c-0.1-0.63,0.33-1.22,0.96-1.32c5.73-0.91,11.42-1.81,17.06-2.72c0.62-0.1,1.22,0.33,1.32,0.95c0.1,0.63-0.33,1.22-0.95,1.32
					c-5.64,0.9-11.33,1.81-17.07,2.72C745.18,1248.74,745.12,1248.74,745.06,1248.74z M779.19,1243.28c-0.55,0-1.04-0.4-1.13-0.97
					c-0.1-0.63,0.32-1.22,0.95-1.32c5.74-0.93,11.43-1.86,17.05-2.78c0.63-0.1,1.22,0.32,1.32,0.95c0.1,0.63-0.32,1.22-0.95,1.32
					c-5.63,0.92-11.31,1.85-17.06,2.78C779.31,1243.27,779.25,1243.28,779.19,1243.28z M813.29,1237.68c-0.55,0-1.04-0.4-1.13-0.96
					c-0.1-0.63,0.32-1.22,0.95-1.32c5.76-0.96,11.44-1.91,17.05-2.85c0.64-0.11,1.22,0.32,1.33,0.95c0.11,0.63-0.32,1.22-0.94,1.32
					c-5.61,0.94-11.29,1.89-17.05,2.85C813.42,1237.68,813.36,1237.68,813.29,1237.68z M847.39,1231.96c-0.55,0-1.04-0.4-1.13-0.96
					c-0.11-0.63,0.32-1.22,0.94-1.33c5.78-0.98,11.46-1.95,17.04-2.91c0.62-0.11,1.22,0.31,1.33,0.94c0.11,0.62-0.31,1.22-0.94,1.33
					c-5.58,0.96-11.26,1.93-17.04,2.91C847.51,1231.95,847.45,1231.96,847.39,1231.96z M881.46,1226.11c-0.55,0-1.03-0.39-1.13-0.95
					c-0.11-0.63,0.31-1.22,0.94-1.33c5.81-1.01,11.5-2,17.03-2.97c0.63-0.11,1.22,0.31,1.33,0.93c0.11,0.63-0.31,1.22-0.93,1.33
					c-5.54,0.97-11.22,1.96-17.04,2.97C881.59,1226.1,881.53,1226.11,881.46,1226.11z M190.29,1224.72c-0.36,0-0.72-0.17-0.94-0.49
					c-0.36-0.52-0.24-1.24,0.29-1.6c4.35-3.03,9.42-5.97,15.09-8.73c0.57-0.28,1.26-0.04,1.54,0.53c0.28,0.57,0.04,1.26-0.53,1.54
					c-5.56,2.71-10.53,5.59-14.78,8.55C190.74,1224.65,190.51,1224.72,190.29,1224.72z M915.53,1220.14c-0.55,0-1.03-0.39-1.13-0.95
					c-0.11-0.63,0.31-1.22,0.93-1.33c5.88-1.04,11.56-2.05,17.03-3.03c0.62-0.12,1.22,0.3,1.33,0.93c0.11,0.63-0.3,1.22-0.93,1.33
					c-5.47,0.98-11.15,1.99-17.03,3.03C915.66,1220.14,915.59,1220.14,915.53,1220.14z M949.58,1214.05c-0.55,0-1.03-0.39-1.13-0.95
					c-0.11-0.62,0.3-1.22,0.93-1.34c6.01-1.09,11.69-2.12,17.03-3.09c0.63-0.12,1.22,0.3,1.34,0.92c0.11,0.62-0.3,1.22-0.93,1.34
					c-5.34,0.98-11.02,2.01-17.03,3.1C949.72,1214.05,949.65,1214.05,949.58,1214.05z M221.13,1209.32c-0.47,0-0.91-0.29-1.08-0.75
					c-0.22-0.6,0.08-1.26,0.68-1.48c5.1-1.9,10.64-3.75,16.48-5.49c0.61-0.18,1.25,0.16,1.43,0.77c0.18,0.61-0.16,1.25-0.77,1.43
					c-5.79,1.73-11.28,3.56-16.33,5.44C221.4,1209.29,221.26,1209.32,221.13,1209.32z M983.65,1207.83c-0.54,0-1.03-0.39-1.13-0.94
					c-0.12-0.62,0.3-1.22,0.92-1.34c6.49-1.2,12.2-2.26,17.04-3.17c0.62-0.12,1.23,0.29,1.34,0.92c0.12,0.62-0.29,1.23-0.92,1.34
					c-4.85,0.91-10.56,1.97-17.05,3.17C983.79,1207.82,983.72,1207.83,983.65,1207.83z M1017.76,1201.43
					c-0.54,0-1.02-0.38-1.13-0.93c-0.12-0.62,0.29-1.23,0.91-1.35c1.17-0.22,1.83-0.35,1.97-0.38c0.68-0.16,1.41,0.4,1.41,1.12
					c0,0.95-0.11,0.97-2.95,1.52C1017.91,1201.42,1017.84,1201.43,1017.76,1201.43z M254.23,1199.33c-0.52,0-0.99-0.35-1.12-0.88
					c-0.15-0.62,0.23-1.24,0.84-1.39c5.38-1.32,11.07-2.6,16.93-3.8c0.62-0.13,1.23,0.27,1.36,0.9c0.13,0.62-0.27,1.23-0.9,1.36
					c-5.83,1.19-11.49,2.46-16.84,3.78C254.41,1199.32,254.32,1199.33,254.23,1199.33z M288.12,1192.35c-0.55,0-1.04-0.4-1.13-0.95
					c-0.11-0.63,0.31-1.22,0.94-1.33c5.52-0.95,11.28-1.86,17.12-2.71c0.64-0.1,1.21,0.34,1.3,0.97c0.09,0.63-0.35,1.21-0.97,1.3
					c-5.82,0.84-11.56,1.75-17.06,2.7C288.25,1192.34,288.19,1192.35,288.12,1192.35z M322.37,1187.37c-0.57,0-1.07-0.43-1.14-1.01
					c-0.08-0.63,0.37-1.2,1-1.28c5.67-0.68,11.47-1.32,17.23-1.89c0.63-0.05,1.2,0.4,1.26,1.03c0.06,0.63-0.4,1.2-1.03,1.26
					c-5.75,0.57-11.53,1.2-17.18,1.89C322.46,1187.37,322.42,1187.37,322.37,1187.37z M356.83,1183.96c-0.6,0-1.1-0.46-1.15-1.06
					c-0.05-0.63,0.43-1.19,1.06-1.24c10.69-0.82,17.34-1.11,17.41-1.11c0.64-0.05,1.17,0.47,1.2,1.1c0.03,0.63-0.47,1.17-1.1,1.2
					c-0.06,0-6.68,0.28-17.33,1.1C356.89,1183.96,356.86,1183.96,356.83,1183.96z"/>
			</g>
			<g>
				<polygon class="st17" points="1056.23,1262.04 1197.97,1181.71 1068.67,1189.35 1078.64,1211.19 1051.93,1240.78 				"/>
				<polygon class="st9" points="1197.97,1181.71 1049.44,1208.93 941.25,1284.06 				"/>
				<polygon class="st9" points="1068.67,1189.35 1197.97,1181.71 1062.71,1142.07 				"/>
			</g>
		</g>
		<g>
			<g>
				<polygon class="st17" points="1822.96,206.58 1983.88,232.05 1877.97,157.47 1872.17,180.77 1832.84,187.27 				"/>
				<polygon class="st9" points="1983.88,232.05 1850.73,160.81 1719.3,152.18 				"/>
				<polygon class="st9" points="1877.97,157.47 1983.88,232.05 1902.77,116.78 				"/>
			</g>
		</g>
		<g id="girl_2_1_">
			<path class="st5" d="M2310.24,858.59c0,0-32.81,2.28-57.03,61.37c-24.43,59.6,30.21,59.01,11.8,96.98
				c-18.41,37.97,26.5,60.62,40.13,91.71c13.64,31.09,82.34,106.08,87.78,140.29c5.44,34.2,66.53-35.56,66.53-35.56
				s62.1-66.24,39.83-104.72c-36.7-63.43-4.91-77.21-6.06-112.63C2492.08,960.59,2424.84,821,2310.24,858.59z"/>
			<path class="st18" d="M2292.43,1070.57c0,0-127.03,55.37-151.16,54.31c-24.13-1.05-172.82-45.29-172.82-45.29l3.79,25.58
				c0,0,114.75,66,154.87,69.74c39.5,3.69,174.55-35.45,187.59-43.71C2327.72,1122.94,2330.32,1078.94,2292.43,1070.57z"/>
			<path class="st6" d="M2282.18,1131.28c11.67,8.1,26.31,14.78,44.69,19.02c68.89,15.92,95.29-42.31,105.2-82.27
				c-9.39-5.38-18.23-6.56-23.34-7.17c-4.98-0.59-10.22-0.98-14.55-1.19c-7.73-5.92-19.26-30.17-21.81-67.82l-3.24,0.87
				l-54.29,14.86c0,0,2.49,17.26,3.71,33.57c0.94,12.77,2.6,20.17,0.18,23.16c-4.24,0.92-8.29,6.31-8.29,6.31s0,0.02-0.03,0.05
				C2309.68,1071.85,2293.93,1097.75,2282.18,1131.28z"/>
			<path class="st8" d="M2314.83,1007.58c0,0,2.5,17.24,3.71,33.57c30.76-3.08,45.03-32.36,50.59-48.43L2314.83,1007.58z"/>
			<path class="st6" d="M2305.65,1023.78c0,0,73.01-4.03,69.8-49.46c-3.21-45.43,4.05-76.54-42.7-75.89
				c-46.75,0.65-54.57,18.62-57.19,34.05C2272.95,947.9,2286.58,1023.65,2305.65,1023.78z"/>
			<path class="st19" d="M2452.87,1279.71c6.59-33.7,28.09-168.36,6.59-211.69c-7.72-15.57-38.01-16.97-71.25-15.61
				c-10.34,6.68-49.75,31.91-65.94,28.76c-0.17-0.03-0.49-0.11-0.91-0.21c-7.62-1.91-8.99-12.05-2.63-16.67
				c0.01-0.01-17.97,3.2-38.41,7.05c-11.55,2.17-42.69,18.29-42.69,18.29s15.68,28.33,38.81,38.12
				c-3.93,35.18,1.92,50.7,38.41,131.95c30.84,68.68-4.16,130.52-4.16,130.52s181.54,145.96,182.55,71.64
				C2493.98,1405.91,2444.44,1322.79,2452.87,1279.71z"/>
			<path class="st5" d="M2301.68,1548.93c-9.87-1.11-18.76-6.52-24.28-14.78c-0.88-1.31-1.81-2.72-2.81-4.23
				c-20.66-31.28-28.71-127.08-75.18-229.14c-11.32-24.85-51.96-29.31-63.04-57.4c0,0-27.27-91.04,52.2-93.72
				c79.48-2.69,212.85,253.31,214.96,280.16C2405.57,1455.82,2456.08,1566.35,2301.68,1548.93z"/>
			<path class="st20" d="M1985.79,1546.84h113.12c0,0,4.23-18.04-3.2-30.32c-6.57-10.86-4.05-17.05,0.81-26.04
				c-5.12,2.1-11.75,4.01-19.05,3.59c-5.64-0.32-11.6-2.88-16.82-5.92c-4.87,5.55-25.72,29.18-32.23,33.86
				C2021.03,1527.32,1988.06,1525.43,1985.79,1546.84z"/>
			<path class="st21" d="M2440.94,1103.32c0,0,14.72,133.95-80.76,162.02c-95.48,28.07-122.59-123.25-45.5-134.13
				C2391.78,1120.32,2440.94,1103.32,2440.94,1103.32z"/>
			<path class="st5" d="M2133.78,1175.97c-6.81,51.07-33.41,212.25-80.33,290.88c-15.13,25.35,38.11,39.56,38.4,39.49
				c7.14-1.87,19.04-13.25,24.52-18.2c38.1-34.33,115.43-131.55,115.43-209.49c0-38,0.67-110.58-26.97-129.03
				C2187.81,1138.27,2136.49,1155.69,2133.78,1175.97z"/>
			<path class="st4" d="M2369.13,1546.84c0,0-4.19-5.83-11.5-16.92c-8.7-13.18-18.33-39.11-30.01-72.35
				c-12.27-34.89-26.83-77.82-45.02-122.49c-5.61-13.79-11.58-27.74-17.92-41.68c-11.32-24.85-42.47-21.41-53.55-49.5
				c0,0-43.24-97.37,36.24-100.06c79.48-2.69,230.5,260.48,239.18,285.97C2496.07,1457.71,2542.42,1573.57,2369.13,1546.84z"/>
			<path class="st5" d="M2068.83,1546.84h113.12c0,0,4.23-18.04-3.2-30.32c-6.57-10.86-4.05-17.05,0.81-26.04
				c-5.12,2.1-11.75,4.01-19.05,3.59c-5.64-0.32-11.6-2.88-16.82-5.92c-4.87,5.55-25.72,29.18-32.23,33.86
				C2104.07,1527.32,2071.1,1525.43,2068.83,1546.84z"/>
			<path class="st22" d="M2327.62,1457.58c-12.27-34.89-26.83-77.82-45.02-122.49c4.75-33.84,15-63.45,32.23-75.38
				C2314.84,1259.7,2356.64,1389.21,2327.62,1457.58z"/>
			<path class="st4" d="M2199.81,1172.35c-6.81,51.07-16.41,215.87-63.33,294.5c-15.13,25.35,38.11,39.56,38.4,39.49
				c7.14-1.87,19.04-13.25,24.52-18.2c38.09-34.33,115.43-131.55,115.43-209.49c0-38-44.6-107.53-72.23-125.98
				C2225.58,1141.32,2202.52,1152.07,2199.81,1172.35z"/>
			<path class="st0" d="M2059.75,1038.42c0,0-5.79-14.72-16.34-13.77c-10.55,0.96-106.34,13.77-106.34,13.77s11.15,2.67,15.36,9.98
				l44.19,130.21h113.34L2059.75,1038.42z"/>
			<path class="st23" d="M2432.07,1068.02c0,0-160.56,59.13-184.68,57.92c-15.59-0.78-145.2-46.34-145.2-46.34l-11.63,22.01
				c0,0,126.15,81.08,160.83,80.68c68.47-0.79,184-42.82,197.04-51.08C2461.46,1122.94,2469.96,1076.39,2432.07,1068.02z"/>
			<path class="st23" d="M2102.18,1079.6c0,0-11.63-17.91-23.22-18.43c-11.59-0.53-31.6,7.9-38.44,9.22
				c-6.85,1.32-26.33,7.64-20.54,17.11c5.79,9.48,32.65,11.59,44.24,9.48s26.33,4.63,26.33,4.63L2102.18,1079.6z"/>
			<path class="st23" d="M2082.12,1061.72c0,0-18.42-8.45-23.69-10.03c-5.27-1.58-4.21,0.03-2.63,5.02s11.06,9.75,11.06,11.32
				C2066.85,1069.59,2082.12,1061.72,2082.12,1061.72z"/>
			<path class="st9" d="M2291.98,997.65c0,0,6.9-2.73,26.32-1.16c0,0-1.03,7.58-15.35,8.33
				C2294.84,1005.25,2291.98,997.65,2291.98,997.65z"/>
			<path class="st19" d="M2349.35,1097.18c0,0,14.36,45.46,63.68,55.8c0,0,81.44-25.09,40.89-80.57
				C2453.92,1072.41,2413.83,1042.62,2349.35,1097.18z"/>
			<path class="st9" d="M1937.08,1038.42c0,0-10.64,4.07-2.59,17.88l103.56-13.81c0,0-3.6-16.01,4.54-17.75L1937.08,1038.42z"/>
			<path class="st18" d="M1974.18,1072.41c2.46-9.84,2.3-12.22-3.26-18.23c-3.68-3.97-9.31,5.88-12.22,11.82
				c-1.07-2.62-2.89-6.89-3.51-7.11c-0.9-0.31,1.24,13.23,1.24,13.23l0,0c-0.06,0.56-0.08,1.13-0.06,1.7l-0.01-0.01
				c0,0-4.49,19.9,15.08,30.65l-3.73-10.97C1969.99,1093.11,1971.69,1082.41,1974.18,1072.41z"/>
			<path class="st5" d="M2302.88,908.47c0,0,15.39-5.39,22.85,10.33c7.45,15.72,9.82,53.31,39.7,56.38
				c29.88,3.07,31.04-63.67,31.04-63.67l-74.79-29.53l-39.49,24.93L2302.88,908.47z"/>
			<path class="st5" d="M2302.88,908.47c0,0-16.85,0.36-20.7,14.55c-3.85,14.19,2.16,40.66-7.17,42.57
				c-9.33,1.92-17.81-44.11,0.24-59.07S2302.88,908.47,2302.88,908.47z"/>
		</g>
		<path class="st6" d="M980.12,662.08c0,0,16.87-6.39,18.78-10.8c1.92-4.41,7.48-6.33,14.19-9.4c6.71-3.07,10.74-8.63,11.7-7.86
			c0.96,0.77,1.15,4.6-1.53,7.48c-2.69,2.88-14.06,23.01-18.34,25.31C1000.63,669.12,980.12,662.08,980.12,662.08z"/>
		<path class="st1" d="M2730.43,1546.02H2622c-5.81-4.93,4.02-16.12,14.29-16.87c4.46-0.34,10.1,0.6,16.55,1.96
			c1.49-19.82,10.01-108.91,42.12-105.33c36.11,4.01,0,39.23-10.21,60.09c-7.56,15.45-15.54,37.6-19.18,48.05
			c2.93,0.64,5.97,1.26,9.07,1.83c4.79-14.69,22.59-64.12,45.24-61.24c26.59,3.37,15.9,23.19-2.94,34.95
			c-13.83,8.65-30.8,20.95-38.87,26.89c6.83,1.12,13.97,1.87,21.21,1.7C2717.85,1537.6,2726.91,1543.08,2730.43,1546.02z"/>
		<g>
			<path class="st1" d="M300.45,1548.23c0,0-41.21-113.19-70.15-103.54C201.36,1454.33,300.45,1548.23,300.45,1548.23z"/>
			<path class="st1" d="M284.66,1548.23c-3.51,0-69.27-68.25-73.66-50.38C206.62,1515.71,284.66,1548.23,284.66,1548.23z"/>
			<path class="st1" d="M354.82,1548.23c0,0-27.2-24.94-61.64-18.45c-34.44,6.49-49.14,13.6-70.77,8.68
				c-21.63-4.92-32.68,9.76-32.68,9.76H354.82z"/>
		</g>
		<path class="st24" d="M2889.48,1554.65H3.28c-1.8,0-3.28-1.47-3.28-3.28v-1.12c0-1.8,1.47-3.28,3.28-3.28h2886.21
			c1.8,0,3.28,1.47,3.28,3.28v1.12C2892.76,1553.17,2891.29,1554.65,2889.48,1554.65z"/>
		<g>
			<path class="st11" d="M1194,1503.03H979.76c-11.96,0-21.66-9.7-21.66-21.66v-58.42c0-11.96,9.7-21.66,21.66-21.66H1194
				c11.96,0,21.66,9.7,21.66,21.66v58.42C1215.66,1493.33,1205.96,1503.03,1194,1503.03z"/>
			<g>
				<path class="st12" d="M1150.42,1426.58H989.04c-1.8,0-3.28-1.47-3.28-3.28l0,0c0-1.8,1.47-3.28,3.28-3.28h161.38
					c1.8,0,3.28,1.47,3.28,3.28l0,0C1153.7,1425.1,1152.22,1426.58,1150.42,1426.58z"/>
				<path class="st12" d="M1017.66,1440.71h-28.62c-1.8,0-3.28-1.47-3.28-3.28l0,0c0-1.8,1.47-3.28,3.28-3.28h28.62
					c1.8,0,3.28,1.47,3.28,3.28l0,0C1020.94,1439.24,1019.46,1440.71,1017.66,1440.71z"/>
				<path class="st12" d="M1107.82,1440.71h-78.85c-1.8,0-3.28-1.47-3.28-3.28l0,0c0-1.8,1.47-3.28,3.28-3.28h78.85
					c1.8,0,3.28,1.47,3.28,3.28l0,0C1111.1,1439.24,1109.62,1440.71,1107.82,1440.71z"/>
			</g>
			<g>
				<path class="st12" d="M1150.42,1466.88H989.04c-1.8,0-3.28-1.47-3.28-3.28l0,0c0-1.8,1.47-3.28,3.28-3.28h161.38
					c1.8,0,3.28,1.47,3.28,3.28l0,0C1153.7,1465.41,1152.22,1466.88,1150.42,1466.88z"/>
				<path class="st12" d="M1047.61,1481.01h-58.57c-1.8,0-3.28-1.47-3.28-3.28l0,0c0-1.8,1.47-3.28,3.28-3.28h58.57
					c1.8,0,3.28,1.47,3.28,3.28l0,0C1050.89,1479.54,1049.42,1481.01,1047.61,1481.01z"/>
				<path class="st12" d="M1118.88,1481.01h-58.57c-1.8,0-3.28-1.47-3.28-3.28l0,0c0-1.8,1.47-3.28,3.28-3.28h58.57
					c1.8,0,3.28,1.47,3.28,3.28l0,0C1122.16,1479.54,1120.68,1481.01,1118.88,1481.01z"/>
			</g>
		</g>
	</g>
</g>
</svg>
