<?xml version="1.0" encoding="utf-8"?>
<!-- Generator: Adobe Illustrator 25.4.1, SVG Export Plug-In . SVG Version: 6.00 Build 0)  -->
<svg version="1.1" id="Layer_1" xmlns="http://www.w3.org/2000/svg" xmlns:xlink="http://www.w3.org/1999/xlink" x="0px" y="0px"
	 viewBox="0 0 393.3 111.8" style="enable-background:new 0 0 393.3 111.8;" xml:space="preserve">
<style type="text/css">
	.st0{fill:#FFFFFF;}
	.st1{fill:#E6007A;}
</style>
<g>
	<path class="st0" d="M150.5,69.7V85H94.3V15h54.9v15.3h-35.3v11.8H145v14.8h-31.1v12.8H150.5z"/>
	<path class="st0" d="M217.5,30.8L195.1,85h-19.6l-22.3-54.2h19.5l13,33.1l13.7-33.1H217.5z"/>
	<path class="st0" d="M276,62.7h-39.4c0.8,2.8,2.4,5,4.6,6.5c2.3,1.5,5.2,2.2,8.6,2.2c2.6,0,4.9-0.4,6.8-1.1
		c1.9-0.7,3.8-1.9,5.8-3.6l10,10.4c-5.3,5.9-13,8.8-23.1,8.8c-6.3,0-11.9-1.2-16.7-3.6s-8.5-5.7-11.1-10c-2.6-4.3-3.9-9.1-3.9-14.5
		c0-5.3,1.3-10.1,3.9-14.3c2.6-4.2,6.1-7.5,10.6-10s9.6-3.6,15.3-3.6c5.4,0,10.3,1.1,14.7,3.4s7.9,5.5,10.5,9.7
		c2.6,4.2,3.9,9.2,3.9,15C276.3,58.1,276.2,59.7,276,62.7z M240,45.9c-2,1.7-3.2,3.9-3.8,6.8h22.2c-0.5-2.9-1.8-5.1-3.8-6.8
		s-4.4-2.5-7.4-2.5C244.5,43.4,242,44.2,240,45.9z"/>
	<path class="st0" d="M336.6,35.9c4.1,4,6.1,10,6.1,18.1v31h-19V57.1c0-7.4-3-11.1-8.9-11.1c-3.3,0-5.9,1.1-7.9,3.2s-3,5.3-3,9.6V85
		h-19V30.8h18.1v5.9c2.1-2.2,4.7-3.9,7.6-5c2.9-1.2,6.1-1.8,9.6-1.8C327.1,29.9,332.5,31.9,336.6,35.9z"/>
	<path class="st0" d="M392.1,82.8c-1.6,1-3.5,1.8-5.9,2.3c-2.3,0.5-4.8,0.8-7.4,0.8c-7.1,0-12.5-1.7-16.3-5.2
		c-3.8-3.5-5.7-8.6-5.7-15.5V47H349V32.8h7.9V18.7h19v14.1h12.4V47h-12.4v18c0,1.9,0.5,3.4,1.5,4.6c1,1.1,2.4,1.7,4.1,1.7
		c2.2,0,4.1-0.6,5.8-1.7L392.1,82.8z"/>
</g>
<circle class="st1" cx="46" cy="51.9" r="36.5"/>
</svg>
